<?xml version="1.0" encoding="utf-8"?>
<!-- Generator: Adobe Illustrator 25.0.1, SVG Export Plug-In . SVG Version: 6.00 Build 0)  -->
<svg version="1.1" id="Layer_1" xmlns="http://www.w3.org/2000/svg" xmlns:xlink="http://www.w3.org/1999/xlink" x="0px" y="0px"
	 viewBox="0 0 244.9 98.7" style="enable-background:new 0 0 244.9 98.7;" xml:space="preserve">
<style type="text/css">
	.st0{fill:#1F1646;}
	.st1{fill:#E54360;}
</style>
<g>
	<g>
		<path class="st0" d="M5.2,39.3c0,1.3,0.4,2.3,1.1,3c0.7,0.7,1.7,1,2.8,1c1.2,0,2.2-0.3,3-1c0.8-0.7,1.2-1.7,1.2-3V27.1H8.8v-4.9
			H18v25.4h-3.3l-0.2-2c-0.7,0.8-1.6,1.5-2.7,2c-1.1,0.5-2.3,0.8-3.6,0.8c-2.3,0-4.3-0.8-5.8-2.4C0.8,44.4,0,42.2,0,39.4V10.1
			c0-1.4,0.2-2.7,0.7-3.8c0.4-1.1,1.1-2.1,1.9-2.9c0.8-0.8,1.8-1.4,2.9-1.8c1.1-0.4,2.4-0.6,3.7-0.6c2.7,0,4.9,0.8,6.5,2.4
			c1.6,1.6,2.5,3.8,2.5,6.6v1.5h-5v-1.4c0-1.3-0.4-2.3-1.1-3c-0.7-0.7-1.7-1-2.8-1c-1.2,0-2.2,0.3-3,1c-0.7,0.7-1.1,1.7-1.1,3V39.3z
			"/>
		<path class="st0" d="M34.7,31.6c-0.8,0.7-1.8,1.5-2.9,2.3c-1.1,0.8-2.4,1.6-3.8,2.5v2.9c0,1.2,0.4,2.2,1.1,2.8
			c0.7,0.6,1.6,1,2.7,1c1.1,0,2-0.3,2.8-1c0.7-0.6,1.1-1.6,1.1-2.8V37l4.7-1.2v3.7c0,1.4-0.2,2.6-0.7,3.6c-0.4,1.1-1.1,2-1.9,2.7
			C37,46.6,36,47.2,35,47.6c-1.1,0.4-2.2,0.6-3.4,0.6c-1.2,0-2.3-0.2-3.4-0.6c-1-0.4-1.9-1-2.7-1.7c-0.8-0.8-1.4-1.7-1.8-2.7
			c-0.4-1.1-0.7-2.3-0.7-3.6V20.1c0-1.3,0.2-2.5,0.7-3.6c0.5-1.1,1.1-2,1.8-2.7c0.8-0.8,1.7-1.3,2.7-1.7c1.1-0.4,2.2-0.6,3.4-0.6
			c1.1,0,2.1,0.2,3.2,0.5c1.1,0.3,2,0.8,2.8,1.6c0.8,0.7,1.5,1.7,2,2.9c0.5,1.2,0.8,2.7,0.8,4.5c0,2.2-0.5,4.2-1.4,5.8
			C38.1,28.4,36.7,30,34.7,31.6z M28,31.4c1.8-1.1,3.1-2.1,4-3c1.2-1.1,2.1-2.2,2.6-3.3c0.5-1.1,0.8-2.4,0.8-3.8
			c0-1.9-0.4-3.2-1.1-3.9c-0.8-0.7-1.6-1.1-2.7-1.1c-1.1,0-2,0.4-2.6,1.1c-0.6,0.7-0.9,1.7-0.9,3V31.4z"/>
		<path class="st0" d="M63.2,0v47.7h-3.6l-0.9-2.2c-0.9,0.9-1.9,1.5-3,2c-1.1,0.5-2.3,0.7-3.5,0.7c-1,0-1.9-0.2-2.8-0.5
			c-0.9-0.4-1.7-0.9-2.3-1.6c-0.7-0.7-1.2-1.6-1.6-2.7c-0.4-1.1-0.6-2.3-0.6-3.8V20.1c0-1.4,0.2-2.7,0.6-3.8c0.4-1.1,0.9-2,1.6-2.7
			c0.7-0.7,1.4-1.3,2.3-1.6c0.9-0.4,1.8-0.5,2.8-0.5c1,0,2,0.2,3,0.5c1,0.4,1.9,0.9,2.7,1.5V1.3L63.2,0z M50.1,38.4
			c0,1.5,0.3,2.6,0.8,3.4c0.6,0.8,1.5,1.2,2.8,1.2c1.6,0,3-0.7,4.3-2V18.7c-1.3-1.4-2.7-2-4.3-2c-1.3,0-2.2,0.4-2.8,1.2
			c-0.6,0.8-0.8,1.9-0.8,3.4V38.4z"/>
		<path class="st0" d="M82.1,17.6c-1.1-0.7-2.2-1-3.3-1c-2,0-3.6,1-5,3v28h-5.2V11.9h3.6l1,3c1.5-2.3,3.5-3.5,6-3.5
			c0.8,0,1.5,0.1,2.3,0.4c0.7,0.2,1.4,0.6,2,1.2L82.1,17.6z"/>
		<path class="st0" d="M85.7,15.4c0.9-1.2,2-2.2,3.5-2.9c1.5-0.7,3.1-1.1,4.8-1.1c2.8,0,5,0.9,6.4,2.7c1.4,1.8,2.1,4.1,2.1,7v26.5
			h-3.3l-0.9-2c-0.9,0.7-1.9,1.3-3,1.8c-1.1,0.4-2.3,0.7-3.5,0.7c-1,0-1.9-0.2-2.8-0.5c-0.9-0.3-1.7-0.9-2.4-1.6
			c-0.7-0.7-1.3-1.7-1.7-2.8c-0.4-1.2-0.6-2.6-0.6-4.3c0-1.3,0.1-2.5,0.4-3.6c0.3-1.1,0.7-2.1,1.3-3.1c0.6-1,1.4-1.9,2.3-2.9
			c0.9-0.9,2-1.9,3.3-2.9c0.9-0.6,1.8-1.3,2.8-2c1-0.7,2.1-1.4,3.2-2.1v-1.1c0-1.5-0.4-2.7-1.1-3.6c-0.7-0.9-1.8-1.4-3.2-1.4
			c-1,0-1.9,0.2-2.7,0.7c-0.8,0.5-1.5,1.2-2,2L85.7,15.4z M93.2,43.2c0.8,0,1.6-0.2,2.3-0.5c0.7-0.4,1.4-0.9,2-1.5V27.4
			c-0.7,0.4-1.3,0.8-1.9,1.2c-0.5,0.4-1.1,0.8-1.6,1.1c-1.8,1.4-3.1,2.8-3.7,4.2c-0.7,1.3-1,2.7-1,4.2c0,1.8,0.3,3.1,1.1,3.9
			C91.1,42.8,92.1,43.2,93.2,43.2z"/>
		<path class="st0" d="M107.5,20.1c0-1.3,0.2-2.5,0.7-3.6c0.5-1.1,1.1-2,1.9-2.7c0.8-0.8,1.7-1.3,2.8-1.7c1.1-0.4,2.2-0.6,3.5-0.6
			c1.8,0,3.4,0.4,4.7,1.2l6.5-0.4l-2.9,4.5c0.4,1.1,0.6,2.2,0.6,3.3v9.5c0,1.4-0.2,2.6-0.7,3.6c-0.5,1.1-1.1,2-1.9,2.7
			c-0.8,0.8-1.7,1.3-2.8,1.7c-1.1,0.4-2.2,0.6-3.5,0.6c-0.7,0-1.4-0.1-2-0.2c-0.9,0.8-1.4,1.7-1.4,2.8c0,0.7,0.2,1.3,0.7,1.8
			c0.5,0.4,1.2,0.7,2.3,0.7h10.2l-2,4.4h-10c-1.3,0-2.2,0.3-2.7,0.8c-0.5,0.5-0.8,1.2-0.8,2c0,0.8,0.2,1.4,0.7,2
			c0.5,0.5,1.2,0.8,2.2,0.8h8.2l-2,4.4h-7.1c-1.2,0-2.3-0.2-3.2-0.6c-0.9-0.4-1.6-0.9-2.3-1.5c-0.6-0.6-1.1-1.4-1.4-2.2
			c-0.3-0.8-0.5-1.7-0.5-2.6c0-1.4,0.4-2.7,1.1-3.8c0.7-1.2,1.8-2,3.3-2.6c-0.5-0.8-0.8-1.8-0.8-2.9c0-1,0.2-1.9,0.7-2.6
			c0.5-0.7,1.1-1.4,1.9-1.9c-1.2-0.7-2.1-1.7-2.8-2.9c-0.7-1.2-1-2.7-1-4.4V20.1z M112.4,29.5c0,1.3,0.4,2.3,1.1,2.9
			c0.7,0.7,1.7,1,2.9,1c1.1,0,2.1-0.3,2.8-1c0.8-0.7,1.1-1.6,1.1-2.9v-9.4c0-1.3-0.4-2.3-1.1-3c-0.8-0.6-1.7-1-2.8-1
			c-1.2,0-2.1,0.3-2.9,1c-0.7,0.6-1.1,1.6-1.1,3V29.5z"/>
		<path class="st0" d="M138.9,11.5c1.5,0,2.8,0.2,3.9,0.6c1.1,0.4,2,1,2.7,1.7c0.7,0.7,1.2,1.5,1.5,2.5c0.3,1,0.5,2,0.5,3.1v2.3
			h-4.7V20c0-2.4-1.3-3.6-3.9-3.6c-1.4,0-2.4,0.3-3,0.9c-0.6,0.6-1,1.5-1,2.5c0,0.6,0.1,1.3,0.4,1.9c0.3,0.7,0.9,1.5,1.8,2.4
			c0.5,0.6,1.2,1.2,1.9,1.9c0.7,0.7,1.5,1.3,2.2,2c0.8,0.7,1.5,1.4,2.2,2.1c0.7,0.7,1.3,1.4,1.8,2c1,1.2,1.6,2.4,2,3.6
			c0.4,1.2,0.5,2.4,0.5,3.6c0,2.6-0.7,4.7-2.2,6.4c-1.4,1.6-3.7,2.5-6.8,2.5c-2.8,0-5.1-0.7-6.7-2.2c-1.6-1.5-2.4-3.5-2.4-6.1v-4
			l4.7,1.2v2.4c0,1.1,0.4,2,1.1,2.7c0.7,0.7,1.8,1,3.3,1c2.8,0,4.2-1.3,4.2-4c0-0.8-0.1-1.6-0.4-2.2c-0.3-0.6-0.8-1.4-1.6-2.3
			c-0.7-0.7-1.4-1.5-2.1-2.2c-0.7-0.7-1.5-1.4-2.2-2c-0.7-0.7-1.4-1.3-2.1-1.9c-0.7-0.6-1.2-1.2-1.8-1.8c-1.1-1.2-1.8-2.5-2.2-3.7
			c-0.4-1.2-0.6-2.4-0.6-3.5c0-2.6,0.8-4.6,2.5-6C134,12.2,136.2,11.5,138.9,11.5z"/>
	</g>
	<g>
		<path class="st0" d="M62.6,62.4l-8.2,14.6l8.9,21.1H58l-7.9-19.2v19.2h-5.2V50.5l5.2,0v25.2l7.3-13.3H62.6z"/>
		<path class="st0" d="M76.9,82.2c-0.8,0.7-1.8,1.5-2.9,2.3c-1.1,0.8-2.4,1.6-3.8,2.5v2.9c0,1.2,0.4,2.2,1.1,2.8
			c0.7,0.6,1.6,1,2.7,1c1.1,0,2-0.3,2.8-1c0.7-0.6,1.1-1.6,1.1-2.8v-2.3l4.7-1.2V90c0,1.4-0.2,2.6-0.7,3.6c-0.5,1.1-1.1,2-1.9,2.7
			c-0.8,0.8-1.7,1.3-2.8,1.7c-1.1,0.4-2.2,0.6-3.4,0.6c-1.2,0-2.3-0.2-3.4-0.6c-1-0.4-1.9-1-2.7-1.7c-0.8-0.8-1.4-1.7-1.8-2.7
			c-0.4-1.1-0.7-2.3-0.7-3.6V70.6c0-1.3,0.2-2.5,0.7-3.6c0.4-1.1,1.1-2,1.8-2.7c0.8-0.8,1.7-1.3,2.8-1.7c1.1-0.4,2.2-0.6,3.4-0.6
			c1.1,0,2.1,0.2,3.2,0.5c1.1,0.3,2,0.8,2.8,1.6c0.8,0.7,1.5,1.7,2,2.9c0.5,1.2,0.8,2.7,0.8,4.5c0,2.2-0.5,4.2-1.4,5.8
			C80.3,78.9,78.8,80.5,76.9,82.2z M70.2,81.9c1.8-1.1,3.1-2.1,4-3c1.2-1.1,2.1-2.2,2.6-3.3c0.5-1.1,0.8-2.4,0.8-3.8
			c0-1.9-0.4-3.2-1.1-3.9c-0.8-0.7-1.6-1.1-2.7-1.1c-1.1,0-2,0.4-2.6,1.1c-0.6,0.7-0.9,1.7-0.9,3V81.9z"/>
		<path class="st0" d="M105.3,62.4v35.7h-3.6l-0.9-2c-1.8,1.6-3.8,2.5-6.2,2.5c-1,0-2-0.2-2.9-0.5c-0.9-0.4-1.7-0.9-2.4-1.6
			c-0.7-0.7-1.2-1.6-1.6-2.7c-0.4-1.1-0.6-2.3-0.6-3.8V62.4h5.2v26.4c0,3.1,1.2,4.6,3.7,4.6c1.4,0,2.7-0.6,4-1.8V62.4H105.3z"/>
		<path class="st0" d="M126.8,62.4v3.6l-11.7,27.7h11.7v4.4h-17.2v-4.3l11.7-27.1h-11.5v-4.4H126.8z"/>
		<path class="st0" d="M142,82.2c-0.8,0.7-1.8,1.5-2.9,2.3c-1.1,0.8-2.4,1.6-3.8,2.5v2.9c0,1.2,0.4,2.2,1.1,2.8c0.7,0.6,1.6,1,2.7,1
			c1.1,0,2-0.3,2.7-1c0.7-0.6,1.1-1.6,1.1-2.8v-2.3l4.7-1.2V90c0,1.4-0.2,2.6-0.7,3.6c-0.4,1.1-1.1,2-1.9,2.7
			c-0.8,0.8-1.7,1.3-2.8,1.7c-1.1,0.4-2.2,0.6-3.4,0.6c-1.2,0-2.3-0.2-3.4-0.6c-1-0.4-1.9-1-2.7-1.7c-0.8-0.8-1.4-1.7-1.8-2.7
			c-0.4-1.1-0.7-2.3-0.7-3.6V70.6c0-1.3,0.2-2.5,0.7-3.6c0.4-1.1,1.1-2,1.8-2.7c0.8-0.8,1.7-1.3,2.8-1.7c1.1-0.4,2.2-0.6,3.4-0.6
			c1.1,0,2.1,0.2,3.2,0.5c1.1,0.3,2,0.8,2.8,1.6c0.8,0.7,1.5,1.7,2,2.9c0.5,1.2,0.8,2.7,0.8,4.5c0,2.2-0.5,4.2-1.4,5.8
			C145.4,78.9,144,80.5,142,82.2z M135.3,81.9c1.8-1.1,3.1-2.1,4-3c1.2-1.1,2.1-2.2,2.6-3.3c0.5-1.1,0.8-2.4,0.8-3.8
			c0-1.9-0.4-3.2-1.1-3.9c-0.8-0.7-1.6-1.1-2.7-1.1c-1.1,0-2,0.4-2.6,1.1c-0.6,0.7-0.9,1.7-0.9,3V81.9z"/>
	</g>
	<g>
		<polygon class="st1" points="186.9,44.5 186.9,65.8 182.6,65.8 182.6,54.8 165.5,71.9 182.6,88.9 182.6,75.8 244.9,75.8 
			244.9,11.5 193.2,11.5 220.6,38.5 193.2,65.8 193.2,44.5 197.5,44.5 197.5,55.5 214.5,38.5 197.5,21.4 197.5,34.5 157.8,34.5 
			157.8,98.6 186.9,98.6 159.5,71.9 		"/>
		<rect x="157.8" y="11.5" class="st1" width="35.4" height="18.8"/>
		<rect x="186.9" y="80.1" class="st1" width="58" height="18.5"/>
	</g>
</g>
</svg>
